<svg width="23" height="23" viewBox="0 0 23 23" fill="none" xmlns="http://www.w3.org/2000/svg">
<path d="M11.5 20.125C16.2635 20.125 20.125 16.2635 20.125 11.5C20.125 6.73654 16.2635 2.875 11.5 2.875M11.5 20.125C6.73654 20.125 2.875 16.2635 2.875 11.5C2.875 6.73654 6.73654 2.875 11.5 2.875M11.5 20.125C9.41599 20.125 7.72656 16.2635 7.72656 11.5C7.72656 6.73654 9.41599 2.875 11.5 2.875M11.5 20.125C13.584 20.125 15.2734 16.2635 15.2734 11.5C15.2734 6.73654 13.584 2.875 11.5 2.875M4.49219 15.6922C6.07231 14.7873 8.69757 14.1953 11.669 14.1953C14.7703 14.1953 17.4944 14.8402 19.0469 15.8125M4.49219 7.30785C6.07231 8.21268 8.69757 8.80469 11.669 8.80469C14.7703 8.80469 17.4944 8.15983 19.0469 7.1875" stroke="#10164A" stroke-width="2"/>
</svg>
